<svg class="svg-icon" style="width: 1em;height: 1em;vertical-align: middle;fill: currentColor;overflow: hidden;" viewBox="0 0 1024 1024" version="1.1" xmlns="http://www.w3.org/2000/svg"><path d="M948.016 864V558.704a79.968 79.968 0 0 0-20.544-53.52L876.016 448l-66.512 35.008a159.984 159.984 0 0 0-85.488 141.584V864" fill="#40C4FF" /><path d="M948 872a8 8 0 0 1-8-8V558.704c0-17.824-6.56-34.928-18.48-48.176l-47.312-52.56-61.008 32.112a151.632 151.632 0 0 0-81.216 134.512V864a8 8 0 0 1-16 0V624.608c0-62.56 34.384-119.536 89.76-148.672l66.512-35.008a8 8 0 0 1 9.664 1.728l51.472 57.184a87.936 87.936 0 0 1 22.592 58.88V864a7.968 7.968 0 0 1-7.984 8zM492 152h-64a8 8 0 0 1 0-16h64a8 8 0 0 1 0 16zM596 72h-64a8 8 0 0 1 0-16h64a8 8 0 0 1 0 16z" fill="#263238" /><path d="M564 104a8 8 0 0 1-8-8V32a8 8 0 0 1 16 0v64a8 8 0 0 1-8 8zM460 184a8 8 0 0 1-8-8V112a8 8 0 0 1 16 0v64a8 8 0 0 1-8 8zM188 440c-74.992 0-136-61.008-136-136s61.008-136 136-136 136 61.008 136 136-60.992 136-136 136z m0-256c-66.176 0-120 53.824-120 120s53.824 120 120 120 120-53.824 120-120-53.824-120-120-120z" fill="#263238" /><path d="M276.752 229.984l9.536-7.936A128 128 0 0 0 60 304h12.08c74.784 0 147.2-26.192 204.672-74.016z" fill="#FFD740" /><path d="M72.08 312H60a8 8 0 0 1-8-8c0-74.992 61.008-136 136-136a135.728 135.728 0 0 1 104.432 48.928 8 8 0 0 1-1.024 11.28l-9.536 7.936A328.688 328.688 0 0 1 72.08 312z m-3.808-16h3.808a312.64 312.64 0 0 0 199.552-72.16l3.184-2.656a119.68 119.68 0 0 0-86.816-37.2c-63.472 0.016-115.6 49.568-119.728 112.016z m208.48-66h0.16-0.16zM489.648 904c-6.08 0-12.272-1.168-18.224-3.632-4.256-1.216-6.32-5.504-5.104-9.744 1.216-4.256 6.064-6.528 10.288-5.36 17.232 7.056 35.952-0.736 42.672-17.024a31.76 31.76 0 0 0 0-24.512 31.84 31.84 0 0 0-16.944-17.136 8.496 8.496 0 0 1-1.744-0.88l-0.048-0.032a8 8 0 0 1 7.488-14.048c11.872 4.896 21.104 14.112 26.032 25.968s4.928 24.912 0.016 36.768a48.16 48.16 0 0 1-44.432 29.632zM228 496h-5.408a8.048 8.048 0 0 1-4.144-1.152l-3.2-2.048c-1.456-0.944-2.912-1.904-4.464-2.72l-66.512-35.008A8 8 0 0 1 140 448v-22.464a8 8 0 0 1 10.496-7.6 119.52 119.52 0 0 0 75.008 0 8.016 8.016 0 0 1 10.496 7.6V488a8 8 0 0 1-8 8z m-72-52.832l62.24 32.752 1.76 0.976v-40.768a135.248 135.248 0 0 1-64 0v7.04z" fill="#263238" /><path d="M214.528 483.008L148 448l-51.456 57.184a80.048 80.048 0 0 0-20.544 53.52V864h224V624.592a160 160 0 0 0-85.472-141.584z" fill="#FF5252" /><path d="M300 872h-224a8 8 0 0 1-8-8V558.688c0-21.776 8.016-42.672 22.592-58.864l51.456-57.184a7.968 7.968 0 0 1 9.664-1.728l66.512 35.008a167.584 167.584 0 0 1 89.76 148.672V864a7.968 7.968 0 0 1-7.984 8z m-216-16h208V624.592a151.616 151.616 0 0 0-81.216-134.512l-61.008-32.112-47.296 52.56a71.888 71.888 0 0 0-18.48 48.16V856zM836 440c-74.992 0-136-61.008-136-136s61.008-136 136-136 136 61.008 136 136-60.992 136-136 136z m0-256c-66.176 0-120 53.824-120 120s53.824 120 120 120 120-53.824 120-120-53.824-120-120-120z" fill="#263238" /><path d="M747.248 229.984l-9.536-7.936A128 128 0 0 1 964.016 304h-12.08c-74.784 0-147.2-26.192-204.688-74.016z" fill="#FFD740" /><path d="M964 312h-12.08a328.688 328.688 0 0 1-209.792-75.856l-9.536-7.936a8 8 0 0 1-1.024-11.28A135.696 135.696 0 0 1 836 168c74.992 0 136 61.008 136 136a8 8 0 0 1-8 8z m-211.632-88.16a312.656 312.656 0 0 0 199.552 72.16h3.808c-4.128-62.448-56.256-112-119.728-112a119.632 119.632 0 0 0-86.816 37.2l3.184 2.64zM579.392 888.624a8 8 0 0 1-7.376-4.928l-30.784-73.84a8.048 8.048 0 0 1 4.304-10.464l127.392-53.072a8 8 0 0 1 6.16 14.768l-120 50 24.624 59.072 89.232-37.168a8 8 0 1 1 6.16 14.768L582.48 888a8.064 8.064 0 0 1-3.088 0.624z" fill="#263238" /><path d="M796.016 583.744V912h80V583.744" fill="#40C4FF" /><path d="M876 920h-80a8 8 0 0 1-8-8V583.744a8 8 0 0 1 16 0V904h64V583.744a8 8 0 0 1 16 0V912a8 8 0 0 1-8 8zM801.408 496h-5.408a8 8 0 0 1-8-8v-62.464a8 8 0 0 1 10.496-7.6 119.52 119.52 0 0 0 75.008 0 8.016 8.016 0 0 1 10.496 7.6V448a7.984 7.984 0 0 1-4.272 7.072l-66.512 35.008c-1.552 0.816-3.008 1.776-4.448 2.72l-3.216 2.032a7.872 7.872 0 0 1-4.144 1.168z m2.592-59.856v40.768c0.576-0.336 1.152-0.672 1.744-0.976l62.256-32.752v-7.024a135.456 135.456 0 0 1-64-0.016z" fill="#263238" /><path d="M724 1000a8 8 0 0 1-8-8v-128a8 8 0 0 1 8-8h72a8 8 0 0 1 0 16h-64V992a8 8 0 0 1-8 8zM948 1000a8 8 0 0 1-8-8v-120h-64a8 8 0 0 1 0-16h72a8 8 0 0 1 8 8v128a8 8 0 0 1-8 8z" fill="#263238" /><path d="M512 544m-120 0a120 120 0 1 0 240 0 120 120 0 1 0-240 0Z" fill="#4DB6AC" /><path d="M492.208 589.264a8.032 8.032 0 0 1-5.664-2.336l-45.264-45.264a8 8 0 0 1 11.312-11.312l39.6 39.6 79.2-79.2a8 8 0 0 1 11.312 11.312l-84.848 84.848a7.92 7.92 0 0 1-5.648 2.352z" fill="#263238" /><path d="M876 944.064l0.016-0.064a40 40 0 0 1-80 0.128l-0.016-0.064" fill="#FFFFFF" /><path d="M836.016 992.064a48.064 48.064 0 0 1-48-47.936c-0.624-4.368 2.448-7.888 6.832-8.512 4.32-0.544 8.464 2.944 9.088 7.328 0.112 18.8 14.464 33.136 32.08 33.136 8.56 0 16.592-3.328 22.64-9.392 5.952-5.968 9.28-13.856 9.36-22.272a9.296 9.296 0 0 1 0.048-1.328v-0.064a8 8 0 1 1 15.936 0.992 47.792 47.792 0 0 1-14.032 34 47.776 47.776 0 0 1-33.952 14.048z" fill="#263238" /><path d="M224.928 556.32l67.344 161.6a40 40 0 0 0 21.536 21.536l161.6 67.328-30.784 73.84-176.8-73.664a80 80 0 0 1-43.072-43.072l-73.664-176.8" fill="#FF5252" /><path d="M444.624 888.624a7.76 7.76 0 0 1-3.072-0.624l-176.784-73.664a87.472 87.472 0 0 1-47.376-47.376l-73.664-176.8a8 8 0 0 1 14.768-6.16l73.664 176.8a71.536 71.536 0 0 0 38.768 38.768l169.408 70.592 24.624-59.072-154.208-64.256a47.648 47.648 0 0 1-25.84-25.856l-67.344-161.584a8 8 0 0 1 14.768-6.16l67.344 161.6c3.264 7.856 9.376 13.968 17.232 17.232l161.6 67.328a7.968 7.968 0 0 1 4.304 10.464l-30.784 73.84a8.08 8.08 0 0 1-7.408 4.928z" fill="#263238" /><path d="M76 1000a8 8 0 0 1-8-8v-128a8 8 0 0 1 16 0v128a8 8 0 0 1-8 8z" fill="#263238" /><path d="M300 1000a8 8 0 0 1-8-8v-128a8 8 0 0 1 16 0v128a8 8 0 0 1-8 8z" fill="#263238" /></svg>